<svg width="1004" height="1004" viewBox="0 0 1004 1004" fill="none" xmlns="http://www.w3.org/2000/svg">
<path fill-rule="evenodd" clip-rule="evenodd" d="M214.352 822.758C190.588 972.94 292.552 995.862 364.249 959.64C368.266 957.611 373.215 958.452 376.418 961.681C457.653 1043.57 509.444 986.715 528.918 956.348C533.185 949.695 543.832 948.604 549.906 953.523C565.793 966.387 596.588 979.762 639.191 945.462C642.64 942.685 647.373 942.303 651.076 944.702C684.551 966.387 792.77 1027.87 771.524 836.029C770.919 830.57 774.571 825.287 779.753 824.123C1115.18 748.807 1109.76 0 519.49 0C-71.7079 0 -133.101 670.324 207.902 810.923C212.405 812.78 215.136 817.803 214.352 822.758ZM397.98 315.424C305.201 424.066 215.166 379.468 187.891 361.718C183.16 358.639 176.814 359.539 174.432 364.775C146.288 426.631 135.875 658.918 319.808 637.918C496.305 617.767 432.846 372.823 410.813 316.942C408.5 311.075 402.033 310.679 397.98 315.424ZM837.763 341.257C820.15 361.673 737.934 442.525 621.758 329.764C616.844 324.994 608.752 326.178 605.991 332.542C556.145 447.413 563.777 637.918 730.723 637.918C892.488 637.918 862.964 377.074 844.9 341.023C843.31 337.849 840.063 338.591 837.763 341.257ZM522.606 629.16C546.449 670.357 609.374 790.35 517.58 765.341C515.693 764.827 513.393 764.864 511.522 765.437C420.98 793.167 483.205 671.065 506.654 629.279C510.275 622.826 518.901 622.758 522.606 629.16ZM348.513 789.018L370.876 804.115C376.678 808.031 384.445 806.332 388.224 800.319C392.003 794.306 390.364 786.257 384.562 782.341L362.199 767.245C356.089 763.121 354.363 754.645 358.342 748.313L372.909 725.137C376.688 719.125 375.048 711.076 369.247 707.159C363.445 703.243 355.678 704.942 351.899 710.955L337.332 734.13C333.353 740.462 325.174 742.251 319.064 738.127L296.701 723.031C290.9 719.114 283.133 720.814 279.354 726.826C275.575 732.839 277.214 740.888 283.016 744.805L305.379 759.901C311.488 764.025 313.215 772.501 309.235 778.832L294.669 802.008C290.89 808.021 292.529 816.07 298.331 819.986C304.133 823.903 311.9 822.204 315.679 816.191L330.246 793.015C334.225 786.684 342.404 784.894 348.513 789.018Z" fill="white"/>
</svg>
